Format                                   : MPEG-4
Format profile                           : Base Media
Codec ID                                 : isom
File size                                : 308 MiB
Duration                                 : 58mn 31s
Overall bit rate mode                    : Variable
Overall bit rate                         : 735 Kbps
Encoded date                             : UTC 2010-10-01 18:24:44
Tagged date                              : UTC 2010-10-01 18:24:44

Video
ID                                       : 1
Format                                   : AVC
Format/Info                              : Advanced Video Codec
Format profile                           : Baseline@L3.0
Format settings, CABAC                   : No
Format settings, ReFrames                : 1 frame
Codec ID                                 : avc1
Codec ID/Info                            : Advanced Video Coding
Duration                                 : 58mn 30s
Bit rate                                 : 608 Kbps
Maximum bit rate                         : 1 783 Kbps
Width                                    : 608 pixels
Height                                   : 368 pixels
Display aspect ratio                     : 1.959
Frame rate mode                          : Constant
Frame rate                               : 23.976 fps
Color space                              : YUV
Chroma subsampling                       : 4:2:0
Bit depth                                : 8 bits
Scan type                                : Progressive
Bits/(Pixel*Frame)                       : 0.113
Stream size                              : 254 MiB (83%)
Writing library                          : x264 core 65 r1077 e46f648

Encoded date                             : UTC 2010-10-01 18:24:44
Tagged date                              : UTC 2010-10-01 18:25:11

Audio
ID                                       : 2
Format                                   : AAC
Format/Info                              : Advanced Audio Codec
Format profile                           : LC
Codec ID                                 : 40
Duration                                 : 58mn 31s
Bit rate mode                            : Variable
Bit rate                                 : 126 Kbps
Maximum bit rate                         : 301 Kbps
Channel(s)                               : 2 channels
Channel positions                        : Front: L R
Sampling rate                            : 44.1 KHz
Compression mode                         : Lossy
Stream size                              : 52.5 MiB (17%)
Encoded date                             : UTC 2010-10-01 18:25:03
Tagged date                              : UTC 2010-10-01 18:25:11
